<svg xmlns="http://www.w3.org/2000/svg" version="1.1" xmlns:xlink="http://www.w3.org/1999/xlink" width="512" height="512" x="0" y="0" viewBox="0 0 512 512.001" style="enable-background:new 0 0 512 512" xml:space="preserve" class=""><g><path fill="#0bebe6" d="M27.723 24.594V288.14a4.009 4.009 0 0 0 4.007 4.007h179.887a4.006 4.006 0 0 0 4.008-4.007V24.594a4.009 4.009 0 0 0-4.008-4.008H31.73a4.011 4.011 0 0 0-4.007 4.008zm0 0" opacity="1" data-original="#8cbafa" class=""></path><path fill="#575b7a" d="M64.445 20.59h35.97v271.558h-35.97zm0 0" opacity="1" data-original="#575b7a" class=""></path><path fill="#31eb0b" d="M263.988 9.21 135.34 192.942a4.005 4.005 0 0 0 .984 5.582L287.68 304.508a4.009 4.009 0 0 0 5.582-.985l128.648-183.73a4.005 4.005 0 0 0-.98-5.582L269.57 8.227a4.012 4.012 0 0 0-5.582.984zm0 0" opacity="1" data-original="#aed559" class=""></path><path fill="#29a210" d="m420.93 114.21-18.602-13.022c1.594 1.117 1.86 3.492.586 5.304l-128.648 183.73c-1.27 1.813-3.59 2.376-5.188 1.258l18.602 13.028a4.009 4.009 0 0 0 5.582-.985l128.648-183.73a4.008 4.008 0 0 0-.98-5.582zm0 0" opacity="1" data-original="#7fab38" class=""></path><path fill="#ffeb96" d="M300.672 124.895c-20.067-14.051-52.149-2.848-71.66 25.02-19.512 27.866-19.067 61.847 1 75.894 20.062 14.05 52.144 2.847 71.656-25.02 19.516-27.867 19.066-61.848-.996-75.894zm0 0" opacity="1" data-original="#ffeb96" class=""></path><path fill="#f11603" d="M7.5 203.254V429.05c0 16.289 13.203 29.488 29.488 29.488h325.856c16.289 0 29.488-13.203 29.488-29.488V203.254c0-16.29-13.203-29.488-29.488-29.488H36.988c-16.285 0-29.488 13.203-29.488 29.488zm0 0" opacity="1" data-original="#f28f88" class=""></path><path fill="#a92317" d="M362.844 173.766h-24.895c16.285 0 29.488 13.203 29.488 29.488V429.05c0 16.285-13.203 29.488-29.488 29.488h24.895c16.289 0 29.492-13.203 29.492-29.488V203.254c-.004-16.285-13.203-29.488-29.492-29.488zm0 0" opacity="1" data-original="#ce675d" class=""></path><path fill="#ffd2c0" d="M390.938 362.52h-59.793c-25.61 0-46.368-20.758-46.368-46.368s20.758-46.367 46.368-46.367h59.793c17.136 0 31.027 13.89 31.027 31.027v30.68c0 17.137-13.89 31.028-31.028 31.028zm0 0" opacity="1" data-original="#ffd2c0" class=""></path><path fill="#edaa9d" d="M390.938 340.21h-59.793c-21.762 0-40.016-14.995-45.008-35.214a46.463 46.463 0 0 0-1.36 11.156c0 25.61 20.758 46.368 46.368 46.368h59.793c17.136 0 31.027-13.891 31.027-31.028V309.18c0 17.14-13.89 31.03-31.028 31.03zm0 0" opacity="1" data-original="#edaa9d" class=""></path><path fill="#a92317" d="M353.371 316.152c0 11.22-9.094 20.309-20.312 20.309-11.215 0-20.309-9.09-20.309-20.309 0-11.214 9.094-20.308 20.309-20.308 11.218 0 20.312 9.094 20.312 20.308zm0 0" opacity="1" data-original="#ce675d" class=""></path><path fill="#ffcd34" d="M283.027 421.39c0 45.9-37.21 83.11-83.109 83.11-45.902 0-83.113-37.21-83.113-83.11 0-45.902 37.21-83.109 83.113-83.109 45.898 0 83.11 37.207 83.11 83.11zm0 0" opacity="1" data-original="#ffcd34" class=""></path><path fill="#e69012" d="M236.55 346.781c15.852 15.137 25.747 36.461 25.747 60.11 0 45.898-37.211 83.109-83.11 83.109-13.152 0-25.582-3.066-36.632-8.504 14.918 14.242 35.11 23.004 57.363 23.004 45.898 0 83.11-37.21 83.11-83.11 0-32.75-18.95-61.066-46.477-74.609zm0 0" opacity="1" data-original="#e69012" class=""></path><path d="M289.922 40.371a7.489 7.489 0 0 0-10.809 2.414c-.05.09-.113.172-.168.254-2.406 3.438-7.16 4.273-10.597 1.871-3.395-2.375-8.07-1.555-10.446 1.84l-10.93 15.613a7.502 7.502 0 0 0 6.137 11.805 7.492 7.492 0 0 0 6.149-3.2l7.363-10.519c6.914 1.926 14.426.442 20.09-4.02l11.062 7.747a7.5 7.5 0 1 0 8.602-12.285zM372.863 134.844l-7.363 10.515a7.502 7.502 0 0 0 1.84 10.446 7.47 7.47 0 0 0 4.297 1.355 7.482 7.482 0 0 0 6.148-3.2l10.934-15.608a7.502 7.502 0 0 0-1.84-10.446c-3.438-2.406-4.277-7.16-1.867-10.601.058-.082.113-.164.18-.239a7.502 7.502 0 0 0 1.706-5.808 7.49 7.49 0 0 0-3.132-5.18l-16.454-11.52a7.5 7.5 0 0 0-10.445 1.844c-2.379 3.391-1.55 8.07 1.84 10.446l11.063 7.742c-2.258 6.851-1.083 14.414 3.093 20.254zM333.063 303.34c3.562 0 6.87 1.426 9.316 4.02a7.503 7.503 0 0 0 10.601.3 7.496 7.496 0 0 0 .305-10.601 27.927 27.927 0 0 0-20.222-8.72c-15.336 0-27.81 12.477-27.81 27.813 0 15.332 12.474 27.809 27.81 27.809 7.43 0 14.414-2.89 19.664-8.145a7.497 7.497 0 0 0 0-10.605 7.497 7.497 0 0 0-10.606 0 12.729 12.729 0 0 1-9.058 3.75c-7.063 0-12.81-5.746-12.81-12.809 0-7.066 5.747-12.812 12.81-12.812zm0 0" fill="#000000" opacity="1" data-original="#000000" class=""></path><path d="M399.84 263.32v-60.07c0-20.395-16.594-36.988-36.988-36.988H323.05c2.328-20.11-4.238-37.797-18.09-47.496-11.734-8.215-26.938-9.688-42.813-4.149-15.003 5.238-28.96 16.246-39.289 30.996-4.574 6.528-8.214 13.45-10.855 20.649h-48.828L268.129 16.375l145.637 101.973-22.188 31.691a7.5 7.5 0 1 0 12.285 8.602l24.188-34.543c3.644-5.192 2.383-12.383-2.817-16.032L273.88 2.09A11.431 11.431 0 0 0 265.28.176a11.455 11.455 0 0 0-7.433 4.73l-34.715 49.582V24.59c0-6.348-5.164-11.512-11.512-11.512H31.731c-6.348 0-11.512 5.164-11.512 11.512v41.058a7.5 7.5 0 0 0 7.5 7.5c4.144 0 7.5-3.355 7.5-7.5V28.082h21.73v138.176H36.99c-.59 0-1.18.015-1.77.043V95.648a7.5 7.5 0 1 0-15 0v74.637C8.23 176.41 0 188.887 0 203.25v225.8c0 20.395 16.594 36.99 36.988 36.99h56c4.145 0 7.5-3.356 7.5-7.5a7.5 7.5 0 0 0-7.5-7.5h-56C24.863 451.04 15 441.175 15 429.05v-225.8c0-9.61 6.195-17.797 14.797-20.781.191-.055.383-.117.566-.188a21.89 21.89 0 0 1 6.63-1.023h325.859c12.125 0 21.992 9.867 21.992 21.992v59.031h-53.696c-29.703 0-53.87 24.164-53.87 53.871 0 29.703 24.167 53.868 53.87 53.868h53.696v59.03c0 12.126-9.867 21.99-21.992 21.99h-57.309a7.5 7.5 0 0 0-7.5 7.5c0 4.144 3.355 7.5 7.5 7.5h57.309c20.394 0 36.992-16.595 36.992-36.99v-60.07c16.968-4.027 29.629-19.308 29.629-37.488v-30.68c-.004-18.183-12.664-33.464-29.633-37.492zM235.145 154.223c17.105-24.43 44.566-34.82 61.214-23.168 9.59 6.715 13.813 19.89 11.567 35.203h-79.711a76.634 76.634 0 0 1 6.93-12.035zM208.133 75.91l-63.266 90.352H107.91V28.078h100.223zM71.949 28.078H92.91v138.18H71.95zm342.52 303.41c0 12.977-10.555 23.532-23.531 23.532h-59.79c-21.433 0-38.87-17.438-38.87-38.872 0-21.43 17.437-38.867 38.87-38.867h59.79c12.976 0 23.53 10.555 23.53 23.531zm0 0" fill="#000000" opacity="1" data-original="#000000" class=""></path><path d="M199.918 330.777c-49.961 0-90.61 40.649-90.61 90.614 0 49.96 40.649 90.609 90.61 90.609 49.965 0 90.613-40.648 90.613-90.61 0-49.964-40.648-90.613-90.613-90.613zm0 166.223c-41.691 0-75.61-33.918-75.61-75.61 0-41.695 33.919-75.613 75.61-75.613 41.695 0 75.613 33.918 75.613 75.614 0 41.691-33.918 75.609-75.613 75.609zm0 0" fill="#000000" opacity="1" data-original="#000000" class=""></path><path d="M206.316 413.89h-12.793a6.843 6.843 0 0 1-6.835-6.835 6.843 6.843 0 0 1 6.835-6.836h24.48c4.142 0 7.5-3.36 7.5-7.5s-3.358-7.5-7.5-7.5h-9.206v-6.34c0-4.14-3.36-7.5-7.5-7.5s-7.5 3.36-7.5 7.5v6.34h-.274c-12.039 0-21.835 9.797-21.835 21.836 0 12.039 9.796 21.836 21.835 21.836h12.793a6.837 6.837 0 0 1 6.832 6.832c0 3.77-3.062 6.836-6.832 6.836h-24.48c-4.145 0-7.5 3.359-7.5 7.5s3.355 7.5 7.5 7.5h11.96v6.34a7.5 7.5 0 1 0 15 0v-6.481c10.876-1.238 19.356-10.492 19.356-21.695-.004-12.04-9.797-21.832-21.836-21.832zm0 0" fill="#000000" opacity="1" data-original="#000000" class=""></path></g></svg>